0
SECTION
2
HEADER
9
$INSUNITS
70
4
9
$ACADVER
1
AC1014
9
$HANDSEED
5
FFFF
0
ENDSEC
0
SECTION
2
TABLES
0
TABLE
2
VPORT
5
8
100
AcDbSymbolTable
0
ENDTAB
0
TABLE
2
LTYPE
5
5
100
AcDbSymbolTable
0
LTYPE
5
14
100
AcDbSymbolTableRecord
100
AcDbLinetypeTableRecord
2
BYBLOCK
70
0
0
LTYPE
5
15
100
AcDbSymbolTableRecord
100
AcDbLinetypeTableRecord
2
BYLAYER
70
0
0
ENDTAB
0
TABLE
2
LAYER
5
2
100
AcDbSymbolTable
70
2
0
LAYER
5
50
100
AcDbSymbolTableRecord
100
AcDbLayerTableRecord
2
0
70
0
6
CONTINUOUS
0
ENDTAB
0
TABLE
2
STYLE
5
3
100
AcDbSymbolTable
70
1
0
STYLE
5
11
100
AcDbSymbolTableRecord
100
AcDbTextStyleTableRecord
2
STANDARD
70
0
0
ENDTAB
0
TABLE
2
VIEW
5
6
100
AcDbSymbolTable
70
0
0
ENDTAB
0
TABLE
2
UCS
5
7
100
AcDbSymbolTable
70
0
0
ENDTAB
0
TABLE
2
APPID
5
9
100
AcDbSymbolTable
70
2
0
APPID
5
12
100
AcDbSymbolTableRecord
100
AcDbRegAppTableRecord
2
ACAD
70
0
0
ENDTAB
0
TABLE
2
DIMSTYLE
5
A
100
AcDbSymbolTable
70
1
0
ENDTAB
0
TABLE
2
BLOCK_RECORD
5
1
100
AcDbSymbolTable
70
1
0
BLOCK_RECORD
5
1F
100
AcDbSymbolTableRecord
100
AcDbBlockTableRecord
2
*MODEL_SPACE
0
BLOCK_RECORD
5
1B
100
AcDbSymbolTableRecord
100
AcDbBlockTableRecord
2
*PAPER_SPACE
0
ENDTAB
0
ENDSEC
0
SECTION
2
BLOCKS
0
BLOCK
5
20
100
AcDbEntity
100
AcDbBlockBegin
2
*MODEL_SPACE
0
ENDBLK
5
21
100
AcDbEntity
100
AcDbBlockEnd
0
BLOCK
5
1C
100
AcDbEntity
100
AcDbBlockBegin
2
*PAPER_SPACE
0
ENDBLK
5
1D
100
AcDbEntity
100
AcDbBlockEnd
0
ENDSEC
0
SECTION
2
ENTITIES
0
LWPOLYLINE
5
100
100
AcDbEntity
8
0
100
AcDbPolyline
90
4
70
1
43
0.0
10
197.00000000000003
20
25.698385751998138
10
3.0000000000000036
20
25.698385751998138
10
3.0000000000000071
20
27.698385751998138
10
197.00000000000003
20
27.698385751998138
0
LWPOLYLINE
5
101
100
AcDbEntity
8
0
100
AcDbPolyline
90
4
70
1
43
0.0
10
197.00000000000003
20
44.010885751998138
10
3.0000000000000044
20
44.010885751998138
10
3.0000000000000071
20
46.010885751998138
10
197.00000000000003
20
46.010885751998138
0
LWPOLYLINE
5
102
100
AcDbEntity
8
0
100
AcDbPolyline
90
4
70
1
43
0.0
10
197.00000000000003
20
62.323385751998131
10
3.0000000000000049
20
62.323385751998131
10
3.0000000000000071
20
64.323385751998146
10
197.00000000000003
20
64.323385751998146
0
LWPOLYLINE
5
103
100
AcDbEntity
8
0
100
AcDbPolyline
90
4
70
1
43
0.0
10
197.00000000000003
20
80.635885751998146
10
3.0000000000000053
20
80.635885751998146
10
3.0000000000000071
20
82.63588575199816
10
197.00000000000003
20
82.63588575199816
0
LWPOLYLINE
5
104
100
AcDbEntity
8
0
100
AcDbPolyline
90
4
70
1
43
0.0
10
197.00000000000003
20
98.948385751998131
10
3.0000000000000067
20
98.948385751998131
10
3.0000000000000071
20
100.94838575199815
10
197.00000000000003
20
100.94838575199815
0
LWPOLYLINE
5
105
100
AcDbEntity
8
0
100
AcDbPolyline
90
4
70
1
43
0.0
10
197.00000000000003
20
117.26088575199813
10
3.0000000000000071
20
117.26088575199813
10
3.0000000000000071
20
119.26088575199813
10
197.00000000000003
20
119.26088575199813
0
LWPOLYLINE
5
106
100
AcDbEntity
8
0
100
AcDbPolyline
90
4
70
1
43
0.0
10
197.00000000000003
20
135.57338575199816
10
3.0000000000000075
20
135.57338575199816
10
3.0000000000000071
20
137.57338575199813
10
197.00000000000003
20
137.57338575199813
0
LWPOLYLINE
5
107
100
AcDbEntity
8
0
100
AcDbPolyline
90
4
70
1
43
0.0
10
197.00000000000003
20
153.88588575199813
10
3.000000000000008
20
153.88588575199813
10
3.0000000000000071
20
155.88588575199816
10
197.00000000000003
20
155.88588575199816
0
LWPOLYLINE
5
108
100
AcDbEntity
8
0
100
AcDbPolyline
90
4
70
1
43
0.0
10
197.00000000000003
20
172.19838575199816
10
3.0000000000000089
20
172.19838575199816
10
3.0000000000000071
20
174.19838575199816
10
197.00000000000003
20
174.19838575199816
0
LWPOLYLINE
5
109
100
AcDbEntity
8
0
100
AcDbPolyline
90
4
70
1
43
0.0
10
24.656791599702792
20
197
10
22.656791599702792
20
197
10
22.656791599702792
20
3.0000000000000071
10
24.656791599702792
20
3.0000000000000071
0
LWPOLYLINE
5
110
100
AcDbEntity
8
0
100
AcDbPolyline
90
4
70
1
43
0.0
10
36.293155236066433
20
197
10
36.293155236066433
20
3.0000000000000071
10
38.293155236066433
20
3.0000000000000071
10
38.293155236066433
20
197
0
LWPOLYLINE
5
111
100
AcDbEntity
8
0
100
AcDbPolyline
90
4
70
1
43
0.0
10
49.929518872430066
20
197
10
49.929518872430066
20
3.0000000000000071
10
51.929518872430066
20
3.0000000000000071
10
51.929518872430066
20
197
0
LWPOLYLINE
5
112
100
AcDbEntity
8
0
100
AcDbPolyline
90
4
70
1
43
0.0
10
63.565882508793706
20
197
10
63.565882508793706
20
3.0000000000000071
10
65.565882508793706
20
3.0000000000000071
10
65.565882508793706
20
197
0
LWPOLYLINE
5
113
100
AcDbEntity
8
0
100
AcDbPolyline
90
4
70
1
43
0.0
10
77.202246145157346
20
197
10
77.202246145157346
20
3.0000000000000071
10
79.202246145157346
20
3.0000000000000071
10
79.202246145157346
20
197
0
LWPOLYLINE
5
114
100
AcDbEntity
8
0
100
AcDbPolyline
90
4
70
1
43
0.0
10
90.838609781520972
20
197
10
90.838609781520972
20
3.0000000000000071
10
92.838609781520987
20
3.0000000000000071
10
92.838609781520987
20
197
0
LWPOLYLINE
5
115
100
AcDbEntity
8
0
100
AcDbPolyline
90
4
70
1
43
0.0
10
104.47497341788463
20
197
10
104.47497341788463
20
3.0000000000000071
10
106.47497341788463
20
3.0000000000000071
10
106.47497341788463
20
197
0
LWPOLYLINE
5
116
100
AcDbEntity
8
0
100
AcDbPolyline
90
4
70
1
43
0.0
10
118.11133705424825
20
197
10
118.11133705424825
20
3.0000000000000071
10
120.11133705424825
20
3.0000000000000071
10
120.11133705424825
20
197
0
LWPOLYLINE
5
117
100
AcDbEntity
8
0
100
AcDbPolyline
90
4
70
1
43
0.0
10
131.74770069061191
20
197
10
131.74770069061191
20
3.0000000000000071
10
133.74770069061188
20
3.0000000000000071
10
133.74770069061188
20
197
0
LWPOLYLINE
5
118
100
AcDbEntity
8
0
100
AcDbPolyline
90
4
70
1
43
0.0
10
145.38406432697553
20
197
10
145.38406432697553
20
3.0000000000000071
10
147.38406432697553
20
3.0000000000000071
10
147.38406432697553
20
197
0
LWPOLYLINE
5
119
100
AcDbEntity
8
0
100
AcDbPolyline
90
4
70
1
43
0.0
10
159.02042796333916
20
197
10
159.02042796333916
20
3.0000000000000071
10
161.02042796333916
20
3.0000000000000071
10
161.02042796333916
20
197
0
LWPOLYLINE
5
120
100
AcDbEntity
8
0
100
AcDbPolyline
90
4
70
1
43
0.0
10
172.65679159970284
20
197
10
172.65679159970284
20
3.0000000000000071
10
174.65679159970281
20
3.0000000000000071
10
174.65679159970281
20
197
0
ENDSEC
0
SECTION
2
OBJECTS
0
DICTIONARY
5
C
100
AcDbDictionary
3
ACAD_GROUP
350
D
3
ACAD_MLINESTYLE
350
17
0
DICTIONARY
5
D
100
AcDbDictionary
0
DICTIONARY
5
1A
330
C
100
AcDbDictionary
0
DICTIONARY
5
17
100
AcDbDictionary
0
ENDSEC
0
EOF
